<svg xmlns="http://www.w3.org/2000/svg" width="52" height="52" viewBox="0 0 52 52">
    <g fill="none" fill-rule="evenodd">
        <path stroke="#323232" stroke-width="2" d="M26.006 12.683L6.948 24.055a2.196 2.196 0 0 1-3.102-.93l-.047-.097a2.5 2.5 0 0 1 .97-3.235l19.744-11.78c.413-.367.95-.561 1.493-.552a2.202 2.202 0 0 1 1.493.551l19.744 11.781a2.5 2.5 0 0 1 .97 3.235l-.047.097a2.196 2.196 0 0 1-3.102.93L26.006 12.683z"/>
        <path stroke="#323232" stroke-linejoin="round" stroke-width="2" d="M42.766 22.732V41.56c0 1.485-1.155 2.69-2.58 2.69H11.814c-1.424 0-2.579-1.205-2.579-2.69V22.732"/>
        <path stroke="#323232" stroke-linejoin="round" stroke-width="2" d="M22.13 28.018h7.739v16.138H22.13z"/>
        <path fill="#00C7AE" d="M13.748 28.017h4.514v1.393h-4.514z"/>
        <path stroke="#323232" stroke-linejoin="round" stroke-width="2" d="M13.748 23.983h4.514v9.414h-4.514z"/>
        <g>
            <path fill="#00C7AE" d="M33.867 28.017h4.514v1.393h-4.514z"/>
            <path stroke="#323232" stroke-linejoin="round" stroke-width="2" d="M33.867 23.983h4.514v9.414h-4.514z"/>
        </g>
    </g>
</svg>
