<?xml version="1.0" encoding="UTF-8"?>
<svg width="106px" height="36px" viewBox="0 0 106 36" version="1.1" xmlns="http://www.w3.org/2000/svg" xmlns:xlink="http://www.w3.org/1999/xlink">
    <title>F670F30F-BDD5-409E-99B0-04A171414FF8</title>
    <g id="[here]-Soomgo-Home" stroke="none" stroke-width="1" fill="none" fill-rule="evenodd">
        <g id="웹공통/header" transform="translate(-977.000000, -1690.000000)" fill="#00C7AE">
            <g id="navigation/web/navigation_provider" transform="translate(877.000000, 1672.000000)">
                <g id="icon/navi/icon_navi_logo" transform="translate(100.000000, 18.000000)">
                    <g id="icon_navi_logo" transform="translate(0.000000, 0.094068)">
                        <path d="M75.7569737,22.77065 C76.2623253,22.3871433 76.5153654,21.8508369 76.5153654,21.1622133 C76.5153654,20.157983 75.7997136,19.6555626 74.367803,19.6555626 L72.3397182,19.6555626 L74.1634525,15.1860211 C74.4127285,14.5766314 74.5383986,13.984005 74.5383986,13.4083831 C74.5383986,12.4942382 74.1718305,11.7238481 73.4388156,11.0975744 C72.7056793,10.4710595 71.794055,10.157983 70.7029714,10.157983 C69.1121214,10.157983 67.6802108,10.8181451 66.4077251,12.1388313 C65.646055,10.8181451 64.5043391,10.157983 62.9819702,10.157983 C62.2770034,10.157983 61.683622,10.2653166 61.2003688,10.4795015 C60.7171157,10.6942893 60.0894937,11.1288097 59.3171386,11.7831831 C59.0785475,10.8578224 58.4650103,10.3948406 57.4765269,10.3948406 C56.521677,10.3948406 55.8055395,10.9764924 55.3284788,12.1388313 L51.9363574,20.4343947 L51.7488843,20.8913466 C51.5782887,21.3205605 51.4930515,21.7039466 51.4930515,22.0427109 C51.4930515,22.4718042 51.6607331,22.8357738 51.9959748,23.1346196 C52.3309737,23.4334654 52.7312967,23.5832501 53.1976724,23.5832501 C54.3793356,23.5832501 55.2829462,22.8213018 55.9082612,21.2976466 L57.9025911,16.4388097 C58.6182428,14.6780556 59.5898488,13.7979198 60.8169233,13.7979198 C61.1239954,13.7979198 61.3906346,13.8909021 61.618055,14.0771079 C61.845354,14.2634342 61.9592463,14.4808753 61.9592463,14.7289487 C61.9592463,14.9660475 61.8738877,15.293596 61.7032921,15.7109911 L59.7773219,20.4343947 L59.5898488,20.8913466 C59.4192532,21.3315351 59.334016,21.7154036 59.334016,22.0427109 C59.334016,22.4603473 59.4985407,22.8213018 59.8284399,23.126057 C60.1579748,23.4309328 60.5553837,23.5832501 61.0217595,23.5832501 C62.2147148,23.5832501 63.123425,22.8273318 63.74874,21.3146511 L65.6578328,16.64202 C65.9985384,15.7845569 66.4531363,15.0959332 67.0212623,14.5766314 C67.5897526,14.0575707 68.1634639,13.7979198 68.7427606,13.7979198 C69.4927743,13.7979198 69.8677205,14.1647838 69.8677205,14.8982705 C69.8677205,15.0903856 69.8221879,15.2991435 69.7313654,15.5246648 L68.1292234,19.4015798 C67.8227583,20.157983 67.6690401,20.7559132 67.6690401,21.1961017 C67.6690401,21.8395006 67.9019244,22.3588024 68.3678144,22.7537661 C68.8337045,23.1489709 69.4416564,23.3462719 70.1920344,23.3462719 L73.6520298,23.3462719 C74.549205,23.3462719 75.2507721,23.1545185 75.7569737,22.77065" id="Fill-1"></path>
                        <path d="M86.3676586,15.3892314 L84.9867446,18.7412971 C84.7369828,19.3397122 84.1285452,19.6386786 83.1630103,19.6386786 C82.0489782,19.6386786 81.49263,19.0460522 81.49263,17.8609201 C81.49263,16.8227988 81.8647835,15.8378619 82.6090905,14.9067125 C83.3529118,13.975563 84.1347377,13.5100486 84.9526254,13.5100486 C85.4067377,13.5100486 85.7854479,13.6230504 86.0863276,13.8485717 C86.3873288,14.0745753 86.5377686,14.3565371 86.5377686,14.6950602 C86.5377686,14.875839 86.4810653,15.1072696 86.3676586,15.3892314 Z M79.3960641,30.9138962 C78.7825269,31.5571744 78.0663895,31.8788135 77.2483803,31.8788135 C76.67989,31.8788135 76.2027079,31.6927284 75.8165911,31.3201962 C75.4303528,30.9477847 75.237173,30.4961392 75.237173,29.9657422 C75.237173,29.1870307 75.5183826,28.5830679 76.0809233,28.1543364 C76.6433425,27.7251224 77.4358534,27.5110581 78.4585773,27.5110581 L81.4072715,27.5110581 C80.6803276,29.1362582 80.0096014,30.2704974 79.3960641,30.9138962 Z M90.2026002,10.157983 C89.2252875,10.157983 88.4696884,10.6095078 87.9359244,11.5121958 C87.2427354,10.6095078 86.1969416,10.157983 84.7992715,10.157983 C82.8903001,10.157983 81.1686804,11.0271442 79.6346552,12.7651049 C78.1005086,14.503548 77.3337388,16.4556936 77.3337388,18.6228683 C77.3337388,19.9662271 77.710992,21.0551208 78.4670767,21.8901524 C79.2226758,22.725787 80.2083666,23.1430615 81.4246346,23.1430615 C82.0606346,23.1430615 82.7369462,22.9289973 83.4527194,22.4996627 L82.9244192,23.8203489 L79.259709,23.8203489 C77.2254318,23.8203489 75.6060481,24.1529625 74.4020435,24.8191547 C73.4247308,25.3607674 72.6546827,26.0913598 72.092142,27.0115346 C71.5297228,27.9312271 71.2485132,28.916164 71.2485132,29.9657422 C71.2485132,31.579606 71.8310882,32.9224824 72.995874,33.9950952 C74.1605384,35.0671049 75.6178259,35.6034113 77.3679794,35.6034113 C80.7083757,35.6034113 83.2483688,33.4872503 84.9867446,29.2548076 L85.7030034,27.5110581 L88.5325842,27.5110581 C89.429638,27.5110581 90.1346048,27.3162898 90.6459061,26.9269943 C91.1573288,26.5374576 91.4127973,25.9983775 91.4127973,25.309995 C91.4127973,24.3167368 90.690953,23.8203489 89.248236,23.8203489 L87.2027881,23.8203489 L91.4811569,13.3576107 C91.776937,12.635581 91.9240985,12.0995158 91.9240985,11.7492946 C91.9240985,11.3092267 91.7562955,10.9340413 91.4216609,10.6234974 C91.0865407,10.3131946 90.6801466,10.157983 90.2026002,10.157983 L90.2026002,10.157983 Z" id="Fill-2"></path>
                        <path d="M31.6753013,18.6108083 C30.6055876,19.8392357 28.8774112,20.0953893 27.8153471,19.1830534 C26.7531615,18.2705969 26.759354,16.5351687 27.8289462,15.3067413 C28.8986598,14.0781933 30.6268362,13.8220397 31.6889003,14.7344963 C32.7510859,15.6468322 32.7448935,17.3823809 31.6753013,18.6108083 Z M34.5374227,11.4632323 C31.9132852,9.20898478 27.6435372,9.84201204 25.000701,12.8770213 C22.3578648,15.9121513 22.3426873,20.1999491 24.9668247,22.4541967 C27.5909622,24.7084442 31.8607102,24.075417 34.5035464,21.0404077 C37.1463826,18.0052778 37.1615601,13.7174799 34.5374227,11.4632323 L34.5374227,11.4632323 Z" id="Fill-3"></path>
                        <path d="M46.0954296,18.6108083 C45.0257159,19.8392357 43.2975395,20.0953893 42.2354754,19.1830534 C41.1732898,18.2705969 41.1794822,16.5351687 42.2490745,15.3067413 C43.3187881,14.0781933 45.0469645,13.8220397 46.1090286,14.7344963 C47.1712142,15.6468322 47.1650218,17.3823809 46.0954296,18.6108083 Z M48.957551,11.4632323 C46.3334135,9.20898478 42.0636655,9.84201204 39.4208293,12.8770213 C36.7779931,15.9121513 36.7628156,20.1999491 39.386953,22.4541967 C42.0110905,24.7084442 46.2808385,24.075417 48.9236747,21.0404077 C51.5665109,18.0052778 51.5816884,13.7174799 48.957551,11.4632323 L48.957551,11.4632323 Z" id="Fill-4"></path>
                        <path d="M101.117079,18.6108083 C100.047487,19.8392357 98.3193104,20.0953893 97.2571249,19.1830534 C96.1950607,18.2705969 96.2011317,16.5351687 97.2708454,15.3067413 C98.340559,14.0781933 100.068735,13.8220397 101.1308,14.7344963 C102.192985,15.6468322 102.186793,17.3823809 101.117079,18.6108083 Z M103.979322,11.4632323 C101.355063,9.20898478 97.0854364,9.84201204 94.4426002,12.8770213 C91.799764,15.9121513 91.7845865,20.1999491 94.4087239,22.4541967 C97.0328614,24.7084442 101.302609,24.075417 103.945446,21.0404077 C106.588282,18.0052778 106.603459,13.7174799 103.979322,11.4632323 L103.979322,11.4632323 Z" id="Fill-6"></path>
                        <path d="M22.5420596,1.57442766 C21.3318625,0.524849421 19.7661466,2.41098868e-15 17.846126,2.41098868e-15 C15.2894983,2.41098868e-15 13.0961604,0.730954122 11.2668408,2.19250057 C9.47540435,3.62365592 8.45425888,5.42613741 8.19903322,7.59813604 C8.14123711,8.27071996 8.15046506,9.81608313 9.0719244,11.790419 C9.53805727,12.680444 10.3091982,13.7163945 11.3860756,14.8982705 C12.9312715,16.6027045 13.9368751,17.8609201 14.403008,18.6736407 C14.8687766,19.4861201 15.1020252,20.3894111 15.1020252,21.3824281 C15.1020252,22.9513082 14.5279496,24.3137218 13.3804055,25.4708749 C12.2324971,26.6276661 10.8803597,27.2061824 9.32375029,27.2061824 C7.91442383,27.2061824 6.7524307,26.7685265 5.83789233,25.8940588 C4.92311111,25.01935 4.46584192,23.9104367 4.46584192,22.5674397 C4.46584192,21.7210718 4.72701718,20.8636087 5.24985338,19.9940856 C5.76831844,19.1320397 6.41609622,18.4592146 7.19209393,17.9745249 L7.18735853,17.9660829 C7.83877892,17.5935508 8.27856357,16.8967263 8.27856357,16.0964274 C8.27856357,14.9049035 7.30598625,13.9390213 6.10635281,13.9390213 C5.73602062,13.9390213 5.38766552,14.0315212 5.08253608,14.1938483 L5.08035052,14.1899891 C4.71305384,14.4079126 4.33798625,14.6656339 3.95441924,14.9660475 C1.31801833,17.0314361 0,19.6106995 0,22.702873 C0,25.2310023 0.846421535,27.3048328 2.53975029,28.924606 C4.23271478,30.5440173 6.40298282,31.3539641 9.05091867,31.3539641 C12.4710882,31.3539641 15.2383803,30.151948 17.351945,27.7479157 C18.8970195,25.9983775 19.6699817,23.9612092 19.6699817,21.6364109 C19.6699817,19.2438356 18.7946621,16.9749955 17.0451157,14.8304935 L16.141748,13.7470268 L15.5541947,13.0112487 L13.3306231,10.2642312 C12.1062199,8.77181127 12.6193425,7.18954463 12.6193425,7.18954463 L12.6197068,7.18954463 C12.8202932,6.43869157 13.3263734,5.75778628 14.1387973,5.14670815 C15.1445223,4.39078992 16.2609828,4.0123484 17.4883001,4.0123484 C18.2723116,4.0123484 18.900055,4.17069566 19.3717732,4.48642539 C19.8430057,4.80263752 20.079047,5.2202739 20.079047,5.73909335 C20.079047,6.70533727 19.4690309,7.31906859 18.2555556,7.58426709 L18.2562841,7.58909107 C17.316126,7.77493504 16.6073952,8.59850965 16.6073952,9.5869439 C16.6073952,10.7123793 17.525819,11.6245946 18.6587927,11.6245946 C18.8212532,11.6245946 18.9784926,11.6038515 19.1300252,11.5683952 C20.1000527,11.4005206 20.8849141,11.1348397 21.4767171,10.7674933 C23.3968591,9.58224052 24.3572944,7.87828889 24.3572944,5.65455303 C24.3572944,3.98448989 23.7522566,2.6241265 22.5420596,1.57442766" id="Fill-7"></path>
                    </g>
                </g>
            </g>
        </g>
    </g>
</svg>