<svg xmlns="http://www.w3.org/2000/svg" width="52" height="52" viewBox="0 0 52 52">
    <g fill="none" fill-rule="evenodd" stroke-linecap="round" stroke-linejoin="round">
        <path stroke="#323232" stroke-width="2" d="M42.716 12.816c-1.95-2.023-4.597-3.16-7.356-3.16-2.76 0-5.405 1.137-7.356 3.16L26 14.893l-2.004-2.077c-4.063-4.211-10.65-4.211-14.712 0-4.062 4.21-4.062 11.038 0 15.248l2.005 2.078L26 45.391l14.711-15.249 2.005-2.078c1.951-2.021 3.047-4.764 3.047-7.624 0-2.86-1.096-5.603-3.047-7.624z"/>
        <path stroke="#00C7AE" stroke-width="1.5" d="M12.827 24.5h6.24l2.773-5.6L26 31.5l4.16-8.4 2.773 4.2h4.16"/>
    </g>
</svg>
